<svg width="1024" height="1024" viewBox="0 0 1024 1024" fill="none" xmlns="http://www.w3.org/2000/svg">
<path d="M147.036 0V145.536H291.821V0H293.321V145.536H438.107V0H439.607V145.536H584.393V0H585.893V145.536H730.679V0H732.179V145.536H876.964V0H878.464V145.536H1024V147.036H878.464V291.821H1024V293.321H878.464V438.107H1024V439.607H878.464V584.393H1024V585.893H878.464V730.679H1024V732.179H878.464V876.964H1024V878.464H878.464V1024H876.964V878.464H732.179V1024H730.679V878.464H585.893V1024H584.393V878.464H439.607V1024H438.107V878.464H293.321V1024H291.821V878.464H147.036V1024H145.536V878.464H0V876.964H145.536V732.179H0V730.679H145.536V585.893H0V584.393H145.536V439.607H0V438.107H145.536V293.321H0V291.821H145.536V147.036H0V145.536H145.536V0H147.036ZM804.971 732.179C784.241 759.718 759.718 784.241 732.179 804.971V876.964H876.964V732.179H804.971ZM730.679 806.094C688.489 837.516 639.308 860.074 585.893 871.011V876.964H730.679V806.094ZM584.393 871.312C571.613 873.873 558.594 875.77 545.372 876.964H584.393V871.312ZM439.607 869.782C463.006 874.491 487.214 876.964 512 876.964C536.786 876.964 560.994 874.491 584.393 869.782V732.179H439.607V869.782ZM439.607 876.964H478.628C465.406 875.77 452.387 873.873 439.607 871.312V876.964ZM293.321 876.964H438.107V871.011C384.692 860.074 335.511 837.516 293.321 806.094V876.964ZM147.036 876.964H291.821V804.971C264.282 784.241 239.759 759.718 219.029 732.179H147.036V876.964ZM293.321 804.222C335.458 835.804 384.649 858.486 438.107 869.479V732.179H293.321V804.222ZM585.893 869.479C639.351 858.486 688.542 835.804 730.679 804.222V732.179H585.893V869.479ZM220.908 732.179C241.182 758.94 265.06 782.818 291.821 803.092V732.179H220.908ZM732.179 803.092C758.94 782.818 782.818 758.94 803.092 732.179H732.179V803.092ZM871.011 585.893C860.074 639.308 837.516 688.489 806.094 730.679H876.964V585.893H871.011ZM732.179 730.679H804.223C835.805 688.542 858.487 639.351 869.479 585.893H732.179V730.679ZM719.472 585.893C697.332 648.051 648.051 697.331 585.893 719.471V730.679H730.679V585.893H719.472ZM584.393 719.999C569.531 725.171 553.946 728.795 537.828 730.679H584.393V719.999ZM439.607 718.41C462.265 726.356 486.628 730.679 512 730.679C537.372 730.679 561.735 726.356 584.393 718.41V585.893H439.607V718.41ZM439.607 730.679H486.172C470.054 728.795 454.469 725.171 439.607 719.999V730.679ZM293.321 730.679H438.107V719.471C375.949 697.331 326.668 648.051 304.528 585.893H293.321V730.679ZM154.521 585.893C165.513 639.351 188.195 688.542 219.777 730.679H291.821V585.893H154.521ZM147.036 730.679H217.906C186.484 688.489 163.926 639.308 152.989 585.893H147.036V730.679ZM306.121 585.893C328.136 647.223 376.777 695.864 438.107 717.879V585.893H306.121ZM585.893 717.879C647.223 695.864 695.864 647.223 717.879 585.893H585.893V717.879ZM876.964 545.372C875.77 558.594 873.874 571.613 871.313 584.393H876.964V545.372ZM732.179 584.393H869.783C874.492 560.994 876.964 536.786 876.964 512C876.964 487.214 874.492 463.006 869.783 439.607H732.179V584.393ZM730.679 537.828C728.795 553.946 725.171 569.531 719.999 584.393H730.679V537.828ZM585.893 584.393H718.411C726.21 562.156 730.516 538.277 730.674 513.414L730.679 512L730.674 510.586C730.516 485.723 726.21 461.844 718.411 439.607H585.893V584.393ZM584.393 526.886C578.488 555.752 555.753 578.488 526.887 584.393H584.393V526.886ZM512 439.607C472.019 439.607 439.607 472.019 439.607 512L439.613 512.936C440.114 552.486 472.331 584.393 512 584.393C551.669 584.393 583.886 552.486 584.387 512.936L584.393 512L584.387 511.064C583.886 471.514 551.669 439.607 512 439.607ZM439.607 584.393H497.113C468.247 578.488 445.512 555.752 439.607 526.886V584.393ZM305.59 439.607C297.644 462.265 293.321 486.628 293.321 512C293.321 537.372 297.644 561.735 305.59 584.393H438.107V439.607H305.59ZM293.321 584.393H304.001C298.829 569.531 295.205 553.946 293.321 537.828V584.393ZM154.217 439.607C149.508 463.006 147.036 487.214 147.036 512L147.043 514.36C147.195 538.323 149.658 561.737 154.217 584.393H291.821V439.607H154.217ZM147.036 584.393H152.687C150.126 571.613 148.23 558.594 147.036 545.372V584.393ZM439.607 497.113C445.512 468.248 468.248 445.512 497.113 439.607H439.607V497.113ZM526.887 439.607C555.752 445.512 578.488 468.248 584.393 497.113V439.607H526.887ZM293.321 486.171C295.205 470.054 298.829 454.468 304.001 439.607H293.321V486.171ZM719.999 439.607C725.171 454.468 728.795 470.054 730.679 486.171V439.607H719.999ZM147.036 478.627C148.23 465.405 150.126 452.386 152.687 439.607H147.036V478.627ZM871.313 439.607C873.874 452.386 875.77 465.405 876.964 478.627V439.607H871.313ZM806.094 293.321C837.516 335.511 860.074 384.692 871.011 438.107H876.964V293.321H806.094ZM732.179 438.107H869.479C858.487 384.649 835.805 335.458 804.223 293.321H732.179V438.107ZM585.893 304.528C648.051 326.668 697.332 375.949 719.472 438.107H730.679V293.321H585.893V304.528ZM585.893 438.107H717.879C695.864 376.777 647.223 328.135 585.893 306.12V438.107ZM512 293.321C486.628 293.321 462.265 297.643 439.607 305.589V438.107H584.393V305.589C561.735 297.643 537.372 293.321 512 293.321ZM438.107 306.12C376.777 328.135 328.136 376.777 306.121 438.107H438.107V306.12ZM293.321 438.107H304.528C326.668 375.949 375.949 326.668 438.107 304.528V293.321H293.321V438.107ZM219.777 293.321C188.195 335.458 165.513 384.649 154.521 438.107H291.821V293.321H219.777ZM147.036 438.107H152.989C163.926 384.692 186.484 335.511 217.906 293.321H147.036V438.107ZM439.607 304C454.469 298.828 470.054 295.205 486.172 293.321H439.607V304ZM537.828 293.321C553.946 295.205 569.531 298.828 584.393 304V293.321H537.828ZM732.179 219.028C759.718 239.758 784.241 264.282 804.971 291.821H876.964V147.036H732.179V219.028ZM732.179 291.821H803.092C782.818 265.06 758.94 241.181 732.179 220.907V291.821ZM585.893 291.821H730.679V219.777C688.542 188.195 639.351 165.513 585.893 154.521V291.821ZM512 147.036C487.214 147.036 463.006 149.508 439.607 154.217V291.821H584.393V154.217C560.994 149.508 536.786 147.036 512 147.036ZM438.107 154.521C384.649 165.513 335.458 188.195 293.321 219.777V291.821H438.107V154.521ZM291.821 220.907C265.06 241.181 241.182 265.06 220.908 291.821H291.821V220.907ZM147.036 291.821H219.029C239.759 264.282 264.282 239.758 291.821 219.028V147.036H147.036V291.821ZM293.321 217.905C335.511 186.483 384.692 163.924 438.107 152.988V147.036H293.321V217.905ZM585.893 152.988C639.308 163.924 688.489 186.483 730.679 217.905V147.036H585.893V152.988ZM439.607 152.687C452.387 150.126 465.406 148.23 478.628 147.036H439.607V152.687ZM545.372 147.036C558.594 148.23 571.613 150.126 584.393 152.687V147.036H545.372Z" fill="black" style="fill:black;fill-opacity:1;"/>
</svg>
