<svg width="1028" height="1028" viewBox="0 0 1028 1028" fill="none" xmlns="http://www.w3.org/2000/svg">
<mask id="path-1-outside-1_4004_169" maskUnits="userSpaceOnUse" x="0" y="0" width="1028" height="1028" fill="black">
<rect fill="white" width="1028" height="1028"/>
<path d="M149.036 2V147.536H293.821V2H295.321V147.536H440.107V2H441.607V147.536H586.393V2H587.893V147.536H732.679V2H734.179V147.536H878.964V2H880.464V147.536H1026V149.036H880.464V293.821H1026V295.321H880.464V440.107H1026V441.607H880.464V586.393H1026V587.893H880.464V732.679H1026V734.179H880.464V878.964H1026V880.464H880.464V1026H878.964V880.464H734.179V1026H732.679V880.464H587.893V1026H586.393V880.464H441.607V1026H440.107V880.464H295.321V1026H293.821V880.464H149.036V1026H147.536V880.464H2V878.964H147.536V734.179H2V732.679H147.536V587.893H2V586.393H147.536V441.607H2V440.107H147.536V295.321H2V293.821H147.536V149.036H2V147.536H147.536V2H149.036ZM806.971 734.179C786.241 761.718 761.718 786.241 734.179 806.971V878.964H878.964V734.179H806.971ZM732.679 808.094C690.489 839.516 641.308 862.074 587.893 873.011V878.964H732.679V808.094ZM586.393 873.312C573.613 875.873 560.594 877.77 547.372 878.964H586.393V873.312ZM441.607 871.782C465.006 876.491 489.214 878.964 514 878.964C538.786 878.964 562.994 876.491 586.393 871.782V734.179H441.607V871.782ZM441.607 878.964H480.628C467.406 877.77 454.387 875.873 441.607 873.312V878.964ZM295.321 878.964H440.107V873.011C386.692 862.074 337.511 839.516 295.321 808.094V878.964ZM149.036 878.964H293.821V806.971C266.282 786.241 241.759 761.718 221.029 734.179H149.036V878.964ZM295.321 806.222C337.458 837.804 386.649 860.486 440.107 871.479V734.179H295.321V806.222ZM587.893 871.479C641.351 860.486 690.542 837.804 732.679 806.222V734.179H587.893V871.479ZM222.908 734.179C243.182 760.94 267.06 784.818 293.821 805.092V734.179H222.908ZM734.179 805.092C760.94 784.818 784.818 760.94 805.092 734.179H734.179V805.092ZM873.011 587.893C862.074 641.308 839.516 690.489 808.094 732.679H878.964V587.893H873.011ZM734.179 732.679H806.223C837.805 690.542 860.487 641.351 871.479 587.893H734.179V732.679ZM721.472 587.893C699.332 650.051 650.051 699.331 587.893 721.471V732.679H732.679V587.893H721.472ZM586.393 721.999C571.531 727.171 555.946 730.795 539.828 732.679H586.393V721.999ZM441.607 720.41C464.265 728.356 488.628 732.679 514 732.679C539.372 732.679 563.735 728.356 586.393 720.41V587.893H441.607V720.41ZM441.607 732.679H488.172C472.054 730.795 456.469 727.171 441.607 721.999V732.679ZM295.321 732.679H440.107V721.471C377.949 699.331 328.668 650.051 306.528 587.893H295.321V732.679ZM156.521 587.893C167.513 641.351 190.195 690.542 221.777 732.679H293.821V587.893H156.521ZM149.036 732.679H219.906C188.484 690.489 165.926 641.308 154.989 587.893H149.036V732.679ZM308.121 587.893C330.136 649.223 378.777 697.864 440.107 719.879V587.893H308.121ZM587.893 719.879C649.223 697.864 697.864 649.223 719.879 587.893H587.893V719.879ZM878.964 547.372C877.77 560.594 875.874 573.613 873.313 586.393H878.964V547.372ZM734.179 586.393H871.783C876.492 562.994 878.964 538.786 878.964 514C878.964 489.214 876.492 465.006 871.783 441.607H734.179V586.393ZM732.679 539.828C730.795 555.946 727.171 571.531 721.999 586.393H732.679V539.828ZM587.893 586.393H720.411C728.21 564.156 732.516 540.277 732.674 515.414L732.679 514L732.674 512.586C732.516 487.723 728.21 463.844 720.411 441.607H587.893V586.393ZM586.393 528.886C580.488 557.752 557.753 580.488 528.887 586.393H586.393V528.886ZM514 441.607C474.019 441.607 441.607 474.019 441.607 514L441.613 514.936C442.114 554.486 474.331 586.393 514 586.393C553.669 586.393 585.886 554.486 586.387 514.936L586.393 514L586.387 513.064C585.886 473.514 553.669 441.607 514 441.607ZM441.607 586.393H499.113C470.247 580.488 447.512 557.752 441.607 528.886V586.393ZM307.59 441.607C299.644 464.265 295.321 488.628 295.321 514C295.321 539.372 299.644 563.735 307.59 586.393H440.107V441.607H307.59ZM295.321 586.393H306.001C300.829 571.531 297.205 555.946 295.321 539.828V586.393ZM156.217 441.607C151.508 465.006 149.036 489.214 149.036 514L149.043 516.36C149.195 540.323 151.658 563.737 156.217 586.393H293.821V441.607H156.217ZM149.036 586.393H154.687C152.126 573.613 150.23 560.594 149.036 547.372V586.393ZM441.607 499.113C447.512 470.248 470.248 447.512 499.113 441.607H441.607V499.113ZM528.887 441.607C557.752 447.512 580.488 470.248 586.393 499.113V441.607H528.887ZM295.321 488.171C297.205 472.054 300.829 456.468 306.001 441.607H295.321V488.171ZM721.999 441.607C727.171 456.468 730.795 472.054 732.679 488.171V441.607H721.999ZM149.036 480.627C150.23 467.405 152.126 454.386 154.687 441.607H149.036V480.627ZM873.313 441.607C875.874 454.386 877.77 467.405 878.964 480.627V441.607H873.313ZM808.094 295.321C839.516 337.511 862.074 386.692 873.011 440.107H878.964V295.321H808.094ZM734.179 440.107H871.479C860.487 386.649 837.805 337.458 806.223 295.321H734.179V440.107ZM587.893 306.528C650.051 328.668 699.332 377.949 721.472 440.107H732.679V295.321H587.893V306.528ZM587.893 440.107H719.879C697.864 378.777 649.223 330.135 587.893 308.12V440.107ZM514 295.321C488.628 295.321 464.265 299.643 441.607 307.589V440.107H586.393V307.589C563.735 299.643 539.372 295.321 514 295.321ZM440.107 308.12C378.777 330.135 330.136 378.777 308.121 440.107H440.107V308.12ZM295.321 440.107H306.528C328.668 377.949 377.949 328.668 440.107 306.528V295.321H295.321V440.107ZM221.777 295.321C190.195 337.458 167.513 386.649 156.521 440.107H293.821V295.321H221.777ZM149.036 440.107H154.989C165.926 386.692 188.484 337.511 219.906 295.321H149.036V440.107ZM441.607 306C456.469 300.828 472.054 297.205 488.172 295.321H441.607V306ZM539.828 295.321C555.946 297.205 571.531 300.828 586.393 306V295.321H539.828ZM734.179 221.028C761.718 241.758 786.241 266.282 806.971 293.821H878.964V149.036H734.179V221.028ZM734.179 293.821H805.092C784.818 267.06 760.94 243.181 734.179 222.907V293.821ZM587.893 293.821H732.679V221.777C690.542 190.195 641.351 167.513 587.893 156.521V293.821ZM514 149.036C489.214 149.036 465.006 151.508 441.607 156.217V293.821H586.393V156.217C562.994 151.508 538.786 149.036 514 149.036ZM440.107 156.521C386.649 167.513 337.458 190.195 295.321 221.777V293.821H440.107V156.521ZM293.821 222.907C267.06 243.181 243.182 267.06 222.908 293.821H293.821V222.907ZM149.036 293.821H221.029C241.759 266.282 266.282 241.758 293.821 221.028V149.036H149.036V293.821ZM295.321 219.905C337.511 188.483 386.692 165.924 440.107 154.988V149.036H295.321V219.905ZM587.893 154.988C641.308 165.924 690.489 188.483 732.679 219.905V149.036H587.893V154.988ZM441.607 154.687C454.387 152.126 467.406 150.23 480.628 149.036H441.607V154.687ZM547.372 149.036C560.594 150.23 573.613 152.126 586.393 154.687V149.036H547.372Z"/>
</mask>
<path d="M149.036 2V147.536H293.821V2H295.321V147.536H440.107V2H441.607V147.536H586.393V2H587.893V147.536H732.679V2H734.179V147.536H878.964V2H880.464V147.536H1026V149.036H880.464V293.821H1026V295.321H880.464V440.107H1026V441.607H880.464V586.393H1026V587.893H880.464V732.679H1026V734.179H880.464V878.964H1026V880.464H880.464V1026H878.964V880.464H734.179V1026H732.679V880.464H587.893V1026H586.393V880.464H441.607V1026H440.107V880.464H295.321V1026H293.821V880.464H149.036V1026H147.536V880.464H2V878.964H147.536V734.179H2V732.679H147.536V587.893H2V586.393H147.536V441.607H2V440.107H147.536V295.321H2V293.821H147.536V149.036H2V147.536H147.536V2H149.036ZM806.971 734.179C786.241 761.718 761.718 786.241 734.179 806.971V878.964H878.964V734.179H806.971ZM732.679 808.094C690.489 839.516 641.308 862.074 587.893 873.011V878.964H732.679V808.094ZM586.393 873.312C573.613 875.873 560.594 877.77 547.372 878.964H586.393V873.312ZM441.607 871.782C465.006 876.491 489.214 878.964 514 878.964C538.786 878.964 562.994 876.491 586.393 871.782V734.179H441.607V871.782ZM441.607 878.964H480.628C467.406 877.77 454.387 875.873 441.607 873.312V878.964ZM295.321 878.964H440.107V873.011C386.692 862.074 337.511 839.516 295.321 808.094V878.964ZM149.036 878.964H293.821V806.971C266.282 786.241 241.759 761.718 221.029 734.179H149.036V878.964ZM295.321 806.222C337.458 837.804 386.649 860.486 440.107 871.479V734.179H295.321V806.222ZM587.893 871.479C641.351 860.486 690.542 837.804 732.679 806.222V734.179H587.893V871.479ZM222.908 734.179C243.182 760.94 267.06 784.818 293.821 805.092V734.179H222.908ZM734.179 805.092C760.94 784.818 784.818 760.94 805.092 734.179H734.179V805.092ZM873.011 587.893C862.074 641.308 839.516 690.489 808.094 732.679H878.964V587.893H873.011ZM734.179 732.679H806.223C837.805 690.542 860.487 641.351 871.479 587.893H734.179V732.679ZM721.472 587.893C699.332 650.051 650.051 699.331 587.893 721.471V732.679H732.679V587.893H721.472ZM586.393 721.999C571.531 727.171 555.946 730.795 539.828 732.679H586.393V721.999ZM441.607 720.41C464.265 728.356 488.628 732.679 514 732.679C539.372 732.679 563.735 728.356 586.393 720.41V587.893H441.607V720.41ZM441.607 732.679H488.172C472.054 730.795 456.469 727.171 441.607 721.999V732.679ZM295.321 732.679H440.107V721.471C377.949 699.331 328.668 650.051 306.528 587.893H295.321V732.679ZM156.521 587.893C167.513 641.351 190.195 690.542 221.777 732.679H293.821V587.893H156.521ZM149.036 732.679H219.906C188.484 690.489 165.926 641.308 154.989 587.893H149.036V732.679ZM308.121 587.893C330.136 649.223 378.777 697.864 440.107 719.879V587.893H308.121ZM587.893 719.879C649.223 697.864 697.864 649.223 719.879 587.893H587.893V719.879ZM878.964 547.372C877.77 560.594 875.874 573.613 873.313 586.393H878.964V547.372ZM734.179 586.393H871.783C876.492 562.994 878.964 538.786 878.964 514C878.964 489.214 876.492 465.006 871.783 441.607H734.179V586.393ZM732.679 539.828C730.795 555.946 727.171 571.531 721.999 586.393H732.679V539.828ZM587.893 586.393H720.411C728.21 564.156 732.516 540.277 732.674 515.414L732.679 514L732.674 512.586C732.516 487.723 728.21 463.844 720.411 441.607H587.893V586.393ZM586.393 528.886C580.488 557.752 557.753 580.488 528.887 586.393H586.393V528.886ZM514 441.607C474.019 441.607 441.607 474.019 441.607 514L441.613 514.936C442.114 554.486 474.331 586.393 514 586.393C553.669 586.393 585.886 554.486 586.387 514.936L586.393 514L586.387 513.064C585.886 473.514 553.669 441.607 514 441.607ZM441.607 586.393H499.113C470.247 580.488 447.512 557.752 441.607 528.886V586.393ZM307.59 441.607C299.644 464.265 295.321 488.628 295.321 514C295.321 539.372 299.644 563.735 307.59 586.393H440.107V441.607H307.59ZM295.321 586.393H306.001C300.829 571.531 297.205 555.946 295.321 539.828V586.393ZM156.217 441.607C151.508 465.006 149.036 489.214 149.036 514L149.043 516.36C149.195 540.323 151.658 563.737 156.217 586.393H293.821V441.607H156.217ZM149.036 586.393H154.687C152.126 573.613 150.23 560.594 149.036 547.372V586.393ZM441.607 499.113C447.512 470.248 470.248 447.512 499.113 441.607H441.607V499.113ZM528.887 441.607C557.752 447.512 580.488 470.248 586.393 499.113V441.607H528.887ZM295.321 488.171C297.205 472.054 300.829 456.468 306.001 441.607H295.321V488.171ZM721.999 441.607C727.171 456.468 730.795 472.054 732.679 488.171V441.607H721.999ZM149.036 480.627C150.23 467.405 152.126 454.386 154.687 441.607H149.036V480.627ZM873.313 441.607C875.874 454.386 877.77 467.405 878.964 480.627V441.607H873.313ZM808.094 295.321C839.516 337.511 862.074 386.692 873.011 440.107H878.964V295.321H808.094ZM734.179 440.107H871.479C860.487 386.649 837.805 337.458 806.223 295.321H734.179V440.107ZM587.893 306.528C650.051 328.668 699.332 377.949 721.472 440.107H732.679V295.321H587.893V306.528ZM587.893 440.107H719.879C697.864 378.777 649.223 330.135 587.893 308.12V440.107ZM514 295.321C488.628 295.321 464.265 299.643 441.607 307.589V440.107H586.393V307.589C563.735 299.643 539.372 295.321 514 295.321ZM440.107 308.12C378.777 330.135 330.136 378.777 308.121 440.107H440.107V308.12ZM295.321 440.107H306.528C328.668 377.949 377.949 328.668 440.107 306.528V295.321H295.321V440.107ZM221.777 295.321C190.195 337.458 167.513 386.649 156.521 440.107H293.821V295.321H221.777ZM149.036 440.107H154.989C165.926 386.692 188.484 337.511 219.906 295.321H149.036V440.107ZM441.607 306C456.469 300.828 472.054 297.205 488.172 295.321H441.607V306ZM539.828 295.321C555.946 297.205 571.531 300.828 586.393 306V295.321H539.828ZM734.179 221.028C761.718 241.758 786.241 266.282 806.971 293.821H878.964V149.036H734.179V221.028ZM734.179 293.821H805.092C784.818 267.06 760.94 243.181 734.179 222.907V293.821ZM587.893 293.821H732.679V221.777C690.542 190.195 641.351 167.513 587.893 156.521V293.821ZM514 149.036C489.214 149.036 465.006 151.508 441.607 156.217V293.821H586.393V156.217C562.994 151.508 538.786 149.036 514 149.036ZM440.107 156.521C386.649 167.513 337.458 190.195 295.321 221.777V293.821H440.107V156.521ZM293.821 222.907C267.06 243.181 243.182 267.06 222.908 293.821H293.821V222.907ZM149.036 293.821H221.029C241.759 266.282 266.282 241.758 293.821 221.028V149.036H149.036V293.821ZM295.321 219.905C337.511 188.483 386.692 165.924 440.107 154.988V149.036H295.321V219.905ZM587.893 154.988C641.308 165.924 690.489 188.483 732.679 219.905V149.036H587.893V154.988ZM441.607 154.687C454.387 152.126 467.406 150.23 480.628 149.036H441.607V154.687ZM547.372 149.036C560.594 150.23 573.613 152.126 586.393 154.687V149.036H547.372Z" fill="black" style="fill:black;fill-opacity:1;"/>
<path d="M149.036 2V147.536H293.821V2H295.321V147.536H440.107V2H441.607V147.536H586.393V2H587.893V147.536H732.679V2H734.179V147.536H878.964V2H880.464V147.536H1026V149.036H880.464V293.821H1026V295.321H880.464V440.107H1026V441.607H880.464V586.393H1026V587.893H880.464V732.679H1026V734.179H880.464V878.964H1026V880.464H880.464V1026H878.964V880.464H734.179V1026H732.679V880.464H587.893V1026H586.393V880.464H441.607V1026H440.107V880.464H295.321V1026H293.821V880.464H149.036V1026H147.536V880.464H2V878.964H147.536V734.179H2V732.679H147.536V587.893H2V586.393H147.536V441.607H2V440.107H147.536V295.321H2V293.821H147.536V149.036H2V147.536H147.536V2H149.036ZM806.971 734.179C786.241 761.718 761.718 786.241 734.179 806.971V878.964H878.964V734.179H806.971ZM732.679 808.094C690.489 839.516 641.308 862.074 587.893 873.011V878.964H732.679V808.094ZM586.393 873.312C573.613 875.873 560.594 877.77 547.372 878.964H586.393V873.312ZM441.607 871.782C465.006 876.491 489.214 878.964 514 878.964C538.786 878.964 562.994 876.491 586.393 871.782V734.179H441.607V871.782ZM441.607 878.964H480.628C467.406 877.77 454.387 875.873 441.607 873.312V878.964ZM295.321 878.964H440.107V873.011C386.692 862.074 337.511 839.516 295.321 808.094V878.964ZM149.036 878.964H293.821V806.971C266.282 786.241 241.759 761.718 221.029 734.179H149.036V878.964ZM295.321 806.222C337.458 837.804 386.649 860.486 440.107 871.479V734.179H295.321V806.222ZM587.893 871.479C641.351 860.486 690.542 837.804 732.679 806.222V734.179H587.893V871.479ZM222.908 734.179C243.182 760.94 267.06 784.818 293.821 805.092V734.179H222.908ZM734.179 805.092C760.94 784.818 784.818 760.94 805.092 734.179H734.179V805.092ZM873.011 587.893C862.074 641.308 839.516 690.489 808.094 732.679H878.964V587.893H873.011ZM734.179 732.679H806.223C837.805 690.542 860.487 641.351 871.479 587.893H734.179V732.679ZM721.472 587.893C699.332 650.051 650.051 699.331 587.893 721.471V732.679H732.679V587.893H721.472ZM586.393 721.999C571.531 727.171 555.946 730.795 539.828 732.679H586.393V721.999ZM441.607 720.41C464.265 728.356 488.628 732.679 514 732.679C539.372 732.679 563.735 728.356 586.393 720.41V587.893H441.607V720.41ZM441.607 732.679H488.172C472.054 730.795 456.469 727.171 441.607 721.999V732.679ZM295.321 732.679H440.107V721.471C377.949 699.331 328.668 650.051 306.528 587.893H295.321V732.679ZM156.521 587.893C167.513 641.351 190.195 690.542 221.777 732.679H293.821V587.893H156.521ZM149.036 732.679H219.906C188.484 690.489 165.926 641.308 154.989 587.893H149.036V732.679ZM308.121 587.893C330.136 649.223 378.777 697.864 440.107 719.879V587.893H308.121ZM587.893 719.879C649.223 697.864 697.864 649.223 719.879 587.893H587.893V719.879ZM878.964 547.372C877.77 560.594 875.874 573.613 873.313 586.393H878.964V547.372ZM734.179 586.393H871.783C876.492 562.994 878.964 538.786 878.964 514C878.964 489.214 876.492 465.006 871.783 441.607H734.179V586.393ZM732.679 539.828C730.795 555.946 727.171 571.531 721.999 586.393H732.679V539.828ZM587.893 586.393H720.411C728.21 564.156 732.516 540.277 732.674 515.414L732.679 514L732.674 512.586C732.516 487.723 728.21 463.844 720.411 441.607H587.893V586.393ZM586.393 528.886C580.488 557.752 557.753 580.488 528.887 586.393H586.393V528.886ZM514 441.607C474.019 441.607 441.607 474.019 441.607 514L441.613 514.936C442.114 554.486 474.331 586.393 514 586.393C553.669 586.393 585.886 554.486 586.387 514.936L586.393 514L586.387 513.064C585.886 473.514 553.669 441.607 514 441.607ZM441.607 586.393H499.113C470.247 580.488 447.512 557.752 441.607 528.886V586.393ZM307.59 441.607C299.644 464.265 295.321 488.628 295.321 514C295.321 539.372 299.644 563.735 307.59 586.393H440.107V441.607H307.59ZM295.321 586.393H306.001C300.829 571.531 297.205 555.946 295.321 539.828V586.393ZM156.217 441.607C151.508 465.006 149.036 489.214 149.036 514L149.043 516.36C149.195 540.323 151.658 563.737 156.217 586.393H293.821V441.607H156.217ZM149.036 586.393H154.687C152.126 573.613 150.23 560.594 149.036 547.372V586.393ZM441.607 499.113C447.512 470.248 470.248 447.512 499.113 441.607H441.607V499.113ZM528.887 441.607C557.752 447.512 580.488 470.248 586.393 499.113V441.607H528.887ZM295.321 488.171C297.205 472.054 300.829 456.468 306.001 441.607H295.321V488.171ZM721.999 441.607C727.171 456.468 730.795 472.054 732.679 488.171V441.607H721.999ZM149.036 480.627C150.23 467.405 152.126 454.386 154.687 441.607H149.036V480.627ZM873.313 441.607C875.874 454.386 877.77 467.405 878.964 480.627V441.607H873.313ZM808.094 295.321C839.516 337.511 862.074 386.692 873.011 440.107H878.964V295.321H808.094ZM734.179 440.107H871.479C860.487 386.649 837.805 337.458 806.223 295.321H734.179V440.107ZM587.893 306.528C650.051 328.668 699.332 377.949 721.472 440.107H732.679V295.321H587.893V306.528ZM587.893 440.107H719.879C697.864 378.777 649.223 330.135 587.893 308.12V440.107ZM514 295.321C488.628 295.321 464.265 299.643 441.607 307.589V440.107H586.393V307.589C563.735 299.643 539.372 295.321 514 295.321ZM440.107 308.12C378.777 330.135 330.136 378.777 308.121 440.107H440.107V308.12ZM295.321 440.107H306.528C328.668 377.949 377.949 328.668 440.107 306.528V295.321H295.321V440.107ZM221.777 295.321C190.195 337.458 167.513 386.649 156.521 440.107H293.821V295.321H221.777ZM149.036 440.107H154.989C165.926 386.692 188.484 337.511 219.906 295.321H149.036V440.107ZM441.607 306C456.469 300.828 472.054 297.205 488.172 295.321H441.607V306ZM539.828 295.321C555.946 297.205 571.531 300.828 586.393 306V295.321H539.828ZM734.179 221.028C761.718 241.758 786.241 266.282 806.971 293.821H878.964V149.036H734.179V221.028ZM734.179 293.821H805.092C784.818 267.06 760.94 243.181 734.179 222.907V293.821ZM587.893 293.821H732.679V221.777C690.542 190.195 641.351 167.513 587.893 156.521V293.821ZM514 149.036C489.214 149.036 465.006 151.508 441.607 156.217V293.821H586.393V156.217C562.994 151.508 538.786 149.036 514 149.036ZM440.107 156.521C386.649 167.513 337.458 190.195 295.321 221.777V293.821H440.107V156.521ZM293.821 222.907C267.06 243.181 243.182 267.06 222.908 293.821H293.821V222.907ZM149.036 293.821H221.029C241.759 266.282 266.282 241.758 293.821 221.028V149.036H149.036V293.821ZM295.321 219.905C337.511 188.483 386.692 165.924 440.107 154.988V149.036H295.321V219.905ZM587.893 154.988C641.308 165.924 690.489 188.483 732.679 219.905V149.036H587.893V154.988ZM441.607 154.687C454.387 152.126 467.406 150.23 480.628 149.036H441.607V154.687ZM547.372 149.036C560.594 150.23 573.613 152.126 586.393 154.687V149.036H547.372Z" stroke="black" style="stroke:black;stroke-opacity:1;" stroke-width="4" mask="url(#path-1-outside-1_4004_169)"/>
</svg>
