<svg width="12" height="12" viewBox="0 0 12 12" fill="none" xmlns="http://www.w3.org/2000/svg">
<path d="M0 6C0 2.68629 2.68677 0 6.00107 0C9.31322 0 11.8723 2.63636 11.9502 5.97403C11.9502 7.03896 11.5865 7.93506 10.6772 8.77922C9.90888 9.49256 8.59894 9.5974 7.63781 9.06493C6.95181 8.66928 6.42311 7.82665 5.97509 7.20779L5.14378 8.48052H3.35125L5.03986 5.97394L3.40321 3.50649H5.24769L5.98808 4.77922L6.71549 3.50649H8.57296L6.88435 5.97403C6.88435 5.97403 7.68968 7.20779 8.13132 7.68831C8.57296 8.16883 9.3783 8.18182 9.89787 7.66234C10.4691 7.09119 10.597 6.6364 10.5993 5.97403C10.6082 3.41024 8.57143 1.35065 6.00107 1.35065C3.43285 1.35065 1.35089 3.43223 1.35089 6C1.35089 8.56777 3.43285 10.6494 6.00107 10.6494C6.3563 10.6494 6.6968 10.6195 7.02723 10.5455L7.33897 11.8571C6.8688 11.9626 6.46291 12 6.00107 12C2.68677 12 0 9.31371 0 6Z" fill="black"/>
</svg>
