<svg xmlns="http://www.w3.org/2000/svg" viewBox="0 0 320 693" width="320" height="693" role="img" aria-label="Add from Contacts in chat plus-menu">
<title>Add from Contacts in chat plus-menu</title>

  <rect x="1.5" y="1.5" width="317" height="690" rx="34" ry="34" fill="#000" stroke="#2a2a2a" stroke-width="3"/>
  <rect x="122" y="6" width="76" height="18" rx="9" ry="9" fill="#000"/>


  <text x="20" y="22" font-family='-apple-system, BlinkMacSystemFont, "SF Pro Text", system-ui, sans-serif' font-size="11" font-weight="400" fill="#fff" text-anchor="start">4:35</text>
  <text x="270" y="22" font-family='-apple-system, BlinkMacSystemFont, "SF Pro Text", system-ui, sans-serif' font-size="9" font-weight="400" fill="#fff" text-anchor="start">SOS</text>
  <rect x="288" y="14" width="14" height="9" rx="2" fill="none" stroke="#fff" stroke-width="0.8"/>
  <rect x="290" y="16" width="6" height="5" fill="#fff"/>
  <circle cx="284" cy="19" r="1" fill="#fff"/>
  <path d="M 278 21 a 4 4 0 0 1 8 0" fill="none" stroke="#fff" stroke-width="0.8"/>


  <rect x="14" y="36" width="32" height="32" rx="16" fill="#1c1c1e"/>
  <text x="30" y="56" font-family='-apple-system, BlinkMacSystemFont, "SF Pro Text", system-ui, sans-serif' font-size="18" font-weight="400" fill="#fff" text-anchor="middle">‹</text>
  <rect x="54" y="36" width="212" height="32" rx="16" fill="#1c1c1e"/>
  <text x="160" y="56" font-family='-apple-system, BlinkMacSystemFont, "SF Pro Text", system-ui, sans-serif' font-size="12" font-weight="400" fill="#fff" text-anchor="middle">The Dev Convosation</text>
  <rect x="274" y="36" width="32" height="32" rx="16" fill="#2c2c2e"/>
  <text x="290" y="57" font-family='-apple-system, BlinkMacSystemFont, "SF Pro Text", system-ui, sans-serif' font-size="16" font-weight="400" fill="#fff" text-anchor="middle">+</text>

<g opacity="0.35">

  <circle cx="20" cy="100" r="10" fill="#5a3a2a"/>
  <text x="20" y="103" font-family='-apple-system, BlinkMacSystemFont, "SF Pro Text", system-ui, sans-serif' font-size="9" font-weight="500" fill="#d1d1d6" text-anchor="middle">Q</text>

<rect x="34" y="90" width="130" height="22" rx="11" fill="#1c1c1e"/>
<text x="40" y="105" font-family='-apple-system, BlinkMacSystemFont, "SF Pro Text", system-ui, sans-serif' font-size="11" font-weight="400" fill="#fff" text-anchor="start">URL is live</text>
<rect x="196" y="124" width="110" height="22" rx="11" fill="#fff"/>
<text x="204" y="139" font-family='-apple-system, BlinkMacSystemFont, "SF Pro Text", system-ui, sans-serif' font-size="11" font-weight="400" fill="#000" text-anchor="start">Great, ship it</text>

  <circle cx="20" cy="168" r="10" fill="#5a3a2a"/>
  <text x="20" y="171" font-family='-apple-system, BlinkMacSystemFont, "SF Pro Text", system-ui, sans-serif' font-size="9" font-weight="500" fill="#d1d1d6" text-anchor="middle">Q</text>

<rect x="34" y="158" width="145" height="22" rx="11" fill="#1c1c1e"/>
<text x="40" y="173" font-family='-apple-system, BlinkMacSystemFont, "SF Pro Text", system-ui, sans-serif' font-size="11" font-weight="400" fill="#fff" text-anchor="start">Done — chef emoji set</text>
<rect x="14" y="629" width="292" height="32" rx="16" fill="#1c1c1e"/>
<text x="28" y="649" font-family='-apple-system, BlinkMacSystemFont, "SF Pro Text", system-ui, sans-serif' font-size="14" font-weight="400" fill="#6e6e73" text-anchor="start">›</text>

  <circle cx="50" cy="645" r="10" fill="#5a3a2a"/>
  <text x="50" y="649.3333333333334" font-family='-apple-system, BlinkMacSystemFont, "SF Pro Text", system-ui, sans-serif' font-size="13" font-weight="500" fill="#d1d1d6" text-anchor="middle"></text>

<text x="72" y="649" font-family='-apple-system, BlinkMacSystemFont, "SF Pro Text", system-ui, sans-serif' font-size="11.5" font-weight="400" fill="#6e6e73" text-anchor="start">Chat as Cam iPhone</text>
<text x="292" y="649" font-family='-apple-system, BlinkMacSystemFont, "SF Pro Text", system-ui, sans-serif' font-size="14" font-weight="400" fill="#6e6e73" text-anchor="middle">↑</text>
</g>
<rect x="86" y="80" width="220" height="178" rx="18" fill="#28282a"/>
<g transform="translate(96, 92)">
       <circle cx="14" cy="14" r="14" fill="transparent"/>
       <path d="M 7 16 a 3 3 0 0 0 4 0 l 4 -4 a 3 3 0 0 0 -4 -4 l -1 1" fill="none" stroke="#fff" stroke-width="1.6" stroke-linecap="round"/>
       <path d="M 13 12 a 3 3 0 0 0 -4 0 l -4 4 a 3 3 0 0 0 4 4 l 1 -1" fill="none" stroke="#fff" stroke-width="1.6" stroke-linecap="round"/>
       <text x="36" y="13" font-family='-apple-system, BlinkMacSystemFont, "SF Pro Text", system-ui, sans-serif' font-size="13" font-weight="500" fill="#fff" text-anchor="start">Invite link</text>
       <text x="36" y="27" font-family='-apple-system, BlinkMacSystemFont, "SF Pro Text", system-ui, sans-serif' font-size="10.5" font-weight="400" fill="#8e8e93" text-anchor="start">Copy to clipboard</text>
     </g>
<g transform="translate(96, 142)">
       <rect x="2" y="2" width="11" height="11" fill="none" stroke="#fff" stroke-width="1.5"/>
       <rect x="15" y="2" width="11" height="11" fill="none" stroke="#fff" stroke-width="1.5"/>
       <rect x="2" y="15" width="11" height="11" fill="none" stroke="#fff" stroke-width="1.5"/>
       <rect x="5" y="5" width="5" height="5" fill="#fff"/>
       <rect x="18" y="5" width="5" height="5" fill="#fff"/>
       <rect x="5" y="18" width="5" height="5" fill="#fff"/>
       <rect x="16" y="16" width="3" height="3" fill="#fff"/>
       <rect x="22" y="16" width="3" height="3" fill="#fff"/>
       <rect x="16" y="22" width="3" height="3" fill="#fff"/>
       <rect x="22" y="22" width="3" height="3" fill="#fff"/>
       <text x="36" y="13" font-family='-apple-system, BlinkMacSystemFont, "SF Pro Text", system-ui, sans-serif' font-size="13" font-weight="500" fill="#fff" text-anchor="start">Convo code</text>
       <text x="36" y="27" font-family='-apple-system, BlinkMacSystemFont, "SF Pro Text", system-ui, sans-serif' font-size="10.5" font-weight="400" fill="#8e8e93" text-anchor="start">Show, share or AirDrop it</text>
     </g>
<rect x="90" y="196" width="212" height="52" rx="12" fill="rgba(240,192,96,0.10)"/>
<g transform="translate(96, 200)">
       <circle cx="9" cy="9" r="4" fill="none" stroke="#fff" stroke-width="1.6"/>
       <path d="M 2 22 c 0 -4 3 -7 7 -7 s 7 3 7 7" fill="none" stroke="#fff" stroke-width="1.6" stroke-linecap="round"/>
       <circle cx="20" cy="6" r="2.4" fill="none" stroke="#fff" stroke-width="1.6"/>
       <path d="M 17 16 c 4 0 7 1.5 7 4" fill="none" stroke="#fff" stroke-width="1.6" stroke-linecap="round"/>
       <text x="36" y="14" font-family='-apple-system, BlinkMacSystemFont, "SF Pro Text", system-ui, sans-serif' font-size="13" font-weight="500" fill="#fff" text-anchor="start">Add from Contacts</text>
       <text x="36" y="28" font-family='-apple-system, BlinkMacSystemFont, "SF Pro Text", system-ui, sans-serif' font-size="10.5" font-weight="400" fill="#8e8e93" text-anchor="start">Pick from your contact list</text>
     </g>
<rect x="270" y="210" width="30" height="14" rx="7" fill="#2a1f0a"/>
<text x="285" y="220" font-family='-apple-system, BlinkMacSystemFont, "SF Pro Text", system-ui, sans-serif' font-size="9" font-weight="400" fill="#f0c060" text-anchor="middle">new</text>
</svg>