<svg width="24" height="24" viewBox="0 0 24 24" fill="none" xmlns="http://www.w3.org/2000/svg">
<path d="M14.7328 13.1188L17.8821 16.2615L16.2961 17.8441L13.1467 14.7014V19.2091H10.9043V14.7434L7.74304 17.8981L6.15698 16.3155L9.36027 13.1188H4.79991V10.8812H9.31694L6.11365 7.68454L7.69971 6.10192L10.9036 9.29924V4.79092H13.1461V9.34185L16.3381 6.15649L17.9242 7.73911L14.7748 10.8819H23.9987C23.4341 4.77838 18.2898 0 12.0264 0C5.38459 0 0 5.3729 0 11.9997C0 18.6265 5.38459 24 12.0264 24C18.2904 24 23.4348 19.2216 24 13.1188H14.7334H14.7328Z" fill="#000000"/>
</svg>
