<svg width="20" height="20" viewBox="0 0 20 20" fill="none" xmlns="http://www.w3.org/2000/svg">
<path d="M9 19V15.5C9 14.9477 9.44771 14.5 10 14.5C10.5523 14.5 11 14.9477 11 15.5V19C11 19.5523 10.5523 20 10 20C9.44771 20 9 19.5523 9 19ZM9 1C9 0.447715 9.44771 0 10 0C10.5523 0 11 0.447715 11 1V10C11 10.2652 10.8946 10.5195 10.707 10.707L4.20703 17.207C3.81651 17.5976 3.18349 17.5976 2.79297 17.207C2.40244 16.8165 2.40244 16.1835 2.79297 15.793L9 9.58594V1ZM13.543 13.543C13.9091 13.1769 14.4881 13.1543 14.8809 13.4746L14.957 13.543L17.207 15.793L17.2754 15.8691C17.5957 16.2619 17.5731 16.8409 17.207 17.207C16.8409 17.5731 16.2619 17.5957 15.8691 17.2754L15.793 17.207L13.543 14.957L13.4746 14.8809C13.1543 14.4881 13.1769 13.9091 13.543 13.543ZM4.5 9C5.05228 9 5.5 9.44771 5.5 10C5.5 10.5523 5.05228 11 4.5 11H1C0.447715 11 0 10.5523 0 10C0 9.44771 0.447715 9 1 9H4.5ZM19 9C19.5523 9 20 9.44771 20 10C20 10.5523 19.5523 11 19 11H15.5C14.9477 11 14.5 10.5523 14.5 10C14.5 9.44771 14.9477 9 15.5 9H19ZM2.79297 2.79297C3.15908 2.42685 3.73809 2.40426 4.13086 2.72461L4.20703 2.79297L6.45703 5.04297L6.52539 5.11914C6.84574 5.51191 6.82315 6.09092 6.45703 6.45703C6.09092 6.82315 5.51191 6.84574 5.11914 6.52539L5.04297 6.45703L2.79297 4.20703L2.72461 4.13086C2.40426 3.73809 2.42685 3.15908 2.79297 2.79297ZM15.793 2.79297C16.1835 2.40244 16.8165 2.40244 17.207 2.79297C17.5976 3.18349 17.5976 3.81651 17.207 4.20703L14.957 6.45703C14.5665 6.84756 13.9335 6.84756 13.543 6.45703C13.1524 6.06651 13.1524 5.43349 13.543 5.04297L15.793 2.79297Z" fill="white"/>
</svg>
