<svg xmlns="http://www.w3.org/2000/svg" viewBox="0 0 1024 1024" width="1024" height="1024"><rect width="1024" height="1024" fill="none" stroke="none"></rect>
  <defs><linearGradient id="bg" x1="0" x2="0" y1="0" y2="1">
    <stop offset="0%" stop-color="#070320"></stop>
    <stop offset="55%" stop-color="#1a0a3b"></stop>
    <stop offset="100%" stop-color="#3a0a5a"></stop>
  </linearGradient></defs>
  <rect width="1024" height="1024" fill="url(#bg)"></rect><circle cx="530.7" cy="192.4" r="0.70" fill="#d9c6ff" opacity="0.47"></circle><circle cx="977.5" cy="398.0" r="1.73" fill="#d9c6ff" opacity="0.64"></circle><circle cx="927.0" cy="282.6" r="1.24" fill="#d9c6ff" opacity="0.52"></circle><circle cx="859.7" cy="105.5" r="0.94" fill="#d9c6ff" opacity="0.49"></circle><circle cx="80.3" cy="170.4" r="0.68" fill="#d9c6ff" opacity="0.67"></circle><circle cx="699.8" cy="558.8" r="0.63" fill="#d9c6ff" opacity="0.85"></circle><circle cx="13.1" cy="63.2" r="1.11" fill="#d9c6ff" opacity="0.80"></circle><circle cx="965.6" cy="320.6" r="1.75" fill="#d9c6ff" opacity="0.38"></circle><circle cx="776.1" cy="146.0" r="1.95" fill="#d9c6ff" opacity="0.61"></circle><circle cx="721.4" cy="465.2" r="0.61" fill="#d9c6ff" opacity="0.65"></circle><circle cx="220.1" cy="48.6" r="0.77" fill="#d9c6ff" opacity="0.68"></circle><circle cx="814.4" cy="44.4" r="1.01" fill="#d9c6ff" opacity="0.72"></circle><circle cx="595.4" cy="511.7" r="0.64" fill="#d9c6ff" opacity="0.43"></circle><circle cx="574.4" cy="354.4" r="0.71" fill="#d9c6ff" opacity="0.83"></circle><circle cx="473.4" cy="53.9" r="0.80" fill="#d9c6ff" opacity="0.44"></circle><circle cx="317.6" cy="2.7" r="0.61" fill="#d9c6ff" opacity="0.49"></circle><circle cx="663.3" cy="438.0" r="0.99" fill="#d9c6ff" opacity="0.66"></circle><circle cx="435.8" cy="574.5" r="0.72" fill="#d9c6ff" opacity="0.69"></circle><circle cx="570.8" cy="538.1" r="1.71" fill="#d9c6ff" opacity="0.65"></circle><circle cx="145.3" cy="99.3" r="1.00" fill="#d9c6ff" opacity="0.53"></circle><circle cx="360.4" cy="206.1" r="1.98" fill="#d9c6ff" opacity="0.74"></circle><circle cx="1013.6" cy="118.0" r="1.54" fill="#d9c6ff" opacity="0.73"></circle><circle cx="727.2" cy="338.4" r="1.95" fill="#d9c6ff" opacity="0.81"></circle><circle cx="929.6" cy="549.0" r="2.16" fill="#d9c6ff" opacity="0.40"></circle><circle cx="280.8" cy="342.2" r="1.31" fill="#d9c6ff" opacity="0.54"></circle><circle cx="19.6" cy="355.3" r="1.42" fill="#d9c6ff" opacity="0.76"></circle><circle cx="778.3" cy="202.9" r="0.69" fill="#d9c6ff" opacity="0.58"></circle><circle cx="78.9" cy="411.0" r="0.41" fill="#d9c6ff" opacity="0.46"></circle><circle cx="753.2" cy="549.9" r="0.64" fill="#d9c6ff" opacity="0.75"></circle><circle cx="589.0" cy="167.9" r="0.54" fill="#d9c6ff" opacity="0.57"></circle><circle cx="66.6" cy="124.2" r="1.84" fill="#d9c6ff" opacity="0.85"></circle><circle cx="538.7" cy="122.4" r="0.78" fill="#d9c6ff" opacity="0.60"></circle><circle cx="20.5" cy="244.1" r="1.13" fill="#d9c6ff" opacity="0.72"></circle><circle cx="926.6" cy="481.8" r="1.41" fill="#d9c6ff" opacity="0.42"></circle><circle cx="58.7" cy="72.6" r="1.26" fill="#d9c6ff" opacity="0.67"></circle><circle cx="779.4" cy="231.3" r="1.86" fill="#d9c6ff" opacity="0.84"></circle></svg>