<svg xmlns="http://www.w3.org/2000/svg" viewBox="0 0 1024 1024" width="1024" height="1024"><rect width="1024" height="1024" fill="none" stroke="none"></rect>
  <defs>
    <radialGradient id="bloom" cx="0.5" cy="0.625" r="0.55" fx="0.5" fy="0.625">
      <stop offset="0%" stop-color="#ff2e9a" stop-opacity="0.7"></stop>
      <stop offset="40%" stop-color="#ff2e9a" stop-opacity="0.25"></stop>
      <stop offset="100%" stop-color="#ff2e9a" stop-opacity="0"></stop>
    </radialGradient>
  </defs>
  <rect x="0" y="480" width="1024" height="320" fill="url(#bloom)"></rect>
  <rect x="0" y="636" width="1024" height="3" fill="#2de2e6"></rect>
  <line x1="0" y1="640.0" x2="1024" y2="640.0" stroke="#ff2e9a" stroke-width="2" opacity="0.25"></line><line x1="0" y1="651.4" x2="1024" y2="651.4" stroke="#ff2e9a" stroke-width="2" opacity="0.32"></line><line x1="0" y1="674.6" x2="1024" y2="674.6" stroke="#ff2e9a" stroke-width="2" opacity="0.39"></line><line x1="0" y1="706.2" x2="1024" y2="706.2" stroke="#ff2e9a" stroke-width="2" opacity="0.47"></line><line x1="0" y1="744.9" x2="1024" y2="744.9" stroke="#ff2e9a" stroke-width="2" opacity="0.54"></line><line x1="0" y1="789.9" x2="1024" y2="789.9" stroke="#ff2e9a" stroke-width="2" opacity="0.61"></line><line x1="0" y1="840.7" x2="1024" y2="840.7" stroke="#ff2e9a" stroke-width="2" opacity="0.68"></line><line x1="0" y1="896.9" x2="1024" y2="896.9" stroke="#ff2e9a" stroke-width="2" opacity="0.76"></line><line x1="0" y1="958.0" x2="1024" y2="958.0" stroke="#ff2e9a" stroke-width="2" opacity="0.83"></line><line x1="0" y1="1024.0" x2="1024" y2="1024.0" stroke="#ff2e9a" stroke-width="2" opacity="0.90"></line><line x1="512" y1="640" x2="-512.0" y2="1024" stroke="#ff2e9a" stroke-width="2" opacity="0.55"></line><line x1="512" y1="640" x2="-455.1" y2="1024" stroke="#ff2e9a" stroke-width="2" opacity="0.55"></line><line x1="512" y1="640" x2="-398.2" y2="1024" stroke="#ff2e9a" stroke-width="2" opacity="0.55"></line><line x1="512" y1="640" x2="-341.3" y2="1024" stroke="#ff2e9a" stroke-width="2" opacity="0.55"></line><line x1="512" y1="640" x2="-284.4" y2="1024" stroke="#ff2e9a" stroke-width="2" opacity="0.55"></line><line x1="512" y1="640" x2="-227.6" y2="1024" stroke="#ff2e9a" stroke-width="2" opacity="0.55"></line><line x1="512" y1="640" x2="-170.7" y2="1024" stroke="#ff2e9a" stroke-width="2" opacity="0.55"></line><line x1="512" y1="640" x2="-113.8" y2="1024" stroke="#ff2e9a" stroke-width="2" opacity="0.55"></line><line x1="512" y1="640" x2="-56.9" y2="1024" stroke="#ff2e9a" stroke-width="2" opacity="0.55"></line><line x1="512" y1="640" x2="0.0" y2="1024" stroke="#ff2e9a" stroke-width="2" opacity="0.55"></line><line x1="512" y1="640" x2="56.9" y2="1024" stroke="#ff2e9a" stroke-width="2" opacity="0.55"></line><line x1="512" y1="640" x2="113.8" y2="1024" stroke="#ff2e9a" stroke-width="2" opacity="0.55"></line><line x1="512" y1="640" x2="170.7" y2="1024" stroke="#ff2e9a" stroke-width="2" opacity="0.55"></line><line x1="512" y1="640" x2="227.6" y2="1024" stroke="#ff2e9a" stroke-width="2" opacity="0.55"></line><line x1="512" y1="640" x2="284.4" y2="1024" stroke="#ff2e9a" stroke-width="2" opacity="0.55"></line><line x1="512" y1="640" x2="341.3" y2="1024" stroke="#ff2e9a" stroke-width="2" opacity="0.55"></line><line x1="512" y1="640" x2="398.2" y2="1024" stroke="#ff2e9a" stroke-width="2" opacity="0.55"></line><line x1="512" y1="640" x2="455.1" y2="1024" stroke="#ff2e9a" stroke-width="2" opacity="0.55"></line><line x1="512" y1="640" x2="512.0" y2="1024" stroke="#ff2e9a" stroke-width="2" opacity="0.55"></line><line x1="512" y1="640" x2="568.9" y2="1024" stroke="#ff2e9a" stroke-width="2" opacity="0.55"></line><line x1="512" y1="640" x2="625.8" y2="1024" stroke="#ff2e9a" stroke-width="2" opacity="0.55"></line><line x1="512" y1="640" x2="682.7" y2="1024" stroke="#ff2e9a" stroke-width="2" opacity="0.55"></line><line x1="512" y1="640" x2="739.6" y2="1024" stroke="#ff2e9a" stroke-width="2" opacity="0.55"></line><line x1="512" y1="640" x2="796.4" y2="1024" stroke="#ff2e9a" stroke-width="2" opacity="0.55"></line><line x1="512" y1="640" x2="853.3" y2="1024" stroke="#ff2e9a" stroke-width="2" opacity="0.55"></line><line x1="512" y1="640" x2="910.2" y2="1024" stroke="#ff2e9a" stroke-width="2" opacity="0.55"></line><line x1="512" y1="640" x2="967.1" y2="1024" stroke="#ff2e9a" stroke-width="2" opacity="0.55"></line><line x1="512" y1="640" x2="1024.0" y2="1024" stroke="#ff2e9a" stroke-width="2" opacity="0.55"></line><line x1="512" y1="640" x2="1080.9" y2="1024" stroke="#ff2e9a" stroke-width="2" opacity="0.55"></line><line x1="512" y1="640" x2="1137.8" y2="1024" stroke="#ff2e9a" stroke-width="2" opacity="0.55"></line><line x1="512" y1="640" x2="1194.7" y2="1024" stroke="#ff2e9a" stroke-width="2" opacity="0.55"></line><line x1="512" y1="640" x2="1251.6" y2="1024" stroke="#ff2e9a" stroke-width="2" opacity="0.55"></line><line x1="512" y1="640" x2="1308.4" y2="1024" stroke="#ff2e9a" stroke-width="2" opacity="0.55"></line><line x1="512" y1="640" x2="1365.3" y2="1024" stroke="#ff2e9a" stroke-width="2" opacity="0.55"></line><line x1="512" y1="640" x2="1422.2" y2="1024" stroke="#ff2e9a" stroke-width="2" opacity="0.55"></line><line x1="512" y1="640" x2="1479.1" y2="1024" stroke="#ff2e9a" stroke-width="2" opacity="0.55"></line><line x1="512" y1="640" x2="1536.0" y2="1024" stroke="#ff2e9a" stroke-width="2" opacity="0.55"></line></svg>