<svg width="96" height="96" viewBox="0 0 96 96" fill="none" xmlns="http://www.w3.org/2000/svg">
<path d="M58.931 52.4751L71.5285 65.0461L65.1842 71.3766L52.5868 58.8056V76.8363H43.6171V58.9734L30.9722 71.5923L24.6279 65.2618L37.4411 52.4751H19.1996V43.5249H37.2678L24.4546 30.7382L30.7988 24.4077L43.6146 37.197V19.1637H52.5842V37.3674L65.3525 24.6259L71.6967 30.9564L59.0993 43.5275H95.9949C93.7366 19.1135 73.1591 0 48.1058 0C21.5384 0 0 21.4916 0 47.9987C0 74.5059 21.5384 96 48.1058 96C73.1617 96 93.7391 76.8865 96 52.4751H58.9336H58.931Z" fill="white"/>
</svg>
