<svg xmlns="http://www.w3.org/2000/svg" viewBox="0 0 320 940" width="320" height="940" role="img" aria-label="Agent template contact page">
<title>Agent template contact page</title>

  <rect x="1.5" y="1.5" width="317" height="937" rx="34" ry="34" fill="#000" stroke="#2a2a2a" stroke-width="3"/>
  <rect x="122" y="6" width="76" height="18" rx="9" ry="9" fill="#000"/>

  <text x="20" y="22" font-family='-apple-system, BlinkMacSystemFont, "SF Pro Text", system-ui, sans-serif' font-size="11" font-weight="400" fill="#fff" text-anchor="start">4:35</text>
  <text x="270" y="22" font-family='-apple-system, BlinkMacSystemFont, "SF Pro Text", system-ui, sans-serif' font-size="9" font-weight="400" fill="#fff" text-anchor="start">SOS</text>
  <rect x="288" y="14" width="14" height="9" rx="2" fill="none" stroke="#fff" stroke-width="0.8"/>
  <rect x="290" y="16" width="6" height="5" fill="#fff"/>
  <circle cx="284" cy="19" r="1" fill="#fff"/>
  <path d="M 278 21 a 4 4 0 0 1 8 0" fill="none" stroke="#fff" stroke-width="0.8"/>

  <rect x="14" y="36" width="32" height="32" rx="16" fill="#1c1c1e"/>
  <text x="30" y="57" font-family='-apple-system, BlinkMacSystemFont, "SF Pro Text", system-ui, sans-serif' font-size="13" font-weight="400" fill="#fff" text-anchor="middle">✕</text>

  <rect x="274" y="36" width="32" height="32" rx="16" fill="#1c1c1e"/>
  <path d="M 290 46 v 12 M 285 51 l 5 -5 l 5 5 M 282 60 v 4 a 2 2 0 0 0 2 2 h 12 a 2 2 0 0 0 2 -2 v -4" fill="none" stroke="#fff" stroke-width="1.4" stroke-linecap="round" stroke-linejoin="round"/>

  <circle cx="160" cy="128" r="40" fill="#3b86ff"/>
  <circle cx="160" cy="116" r="22" fill="#f4c79a"/>
  <path d="M 138 122 q 22 28 44 0" fill="#3a2a1a"/>
  <rect x="142" y="106" width="36" height="6" rx="3" fill="#3a2a1a"/>
  <circle cx="151" cy="118" r="2" fill="#3a2a1a"/>
  <circle cx="169" cy="118" r="2" fill="#3a2a1a"/>

  <rect x="138" y="180" width="44" height="16" rx="8" fill="#2c2c2e"/>
  <circle cx="148" cy="188" r="3" fill="none" stroke="#8e8e93" stroke-width="1"/>
  <path d="M 145 188 l 2 2 l 4 -4" fill="none" stroke="#8e8e93" stroke-width="1" stroke-linecap="round"/>
  <text x="170" y="191" font-family='-apple-system, BlinkMacSystemFont, "SF Pro Text", system-ui, sans-serif' font-size="9" font-weight="500" fill="#8e8e93" text-anchor="middle">AGENT</text>

  <text x="160" y="220" font-family='-apple-system, BlinkMacSystemFont, "SF Pro Text", system-ui, sans-serif' font-size="22" font-weight="600" fill="#fff" text-anchor="middle">Tifoso</text>
  <text x="160" y="244" font-family='-apple-system, BlinkMacSystemFont, "SF Pro Text", system-ui, sans-serif' font-size="11" font-weight="400" fill="#8e8e93" text-anchor="middle">Your in-house expert on the pro cycling scene,</text>
  <text x="160" y="258" font-family='-apple-system, BlinkMacSystemFont, "SF Pro Text", system-ui, sans-serif' font-size="11" font-weight="400" fill="#8e8e93" text-anchor="middle">from the Giro Hurt to the Hero Dirt</text>
  <text x="160" y="278" font-family='-apple-system, BlinkMacSystemFont, "SF Pro Text", system-ui, sans-serif' font-size="10" font-weight="400" fill="#6e6e73" text-anchor="middle">Your agent · added 2d ago</text>

  <rect x="20" y="298" width="280" height="40" rx="20" fill="#fff"/>
  <path d="M 134 314 a 6 6 0 1 1 0 12 h -3 l -3 3 v -3 a 6 6 0 0 1 -6 -6 v 0 a 6 6 0 0 1 6 -6 z" fill="#000"/>
  <text x="170" y="323" font-family='-apple-system, BlinkMacSystemFont, "SF Pro Text", system-ui, sans-serif' font-size="14" font-weight="600" fill="#000" text-anchor="middle">Chat</text>

  <rect x="14" y="350" width="292" height="48" rx="14" fill="#1c1c1e"/>
  <rect x="26" y="366" width="16" height="16" rx="3" fill="none" stroke="#fff" stroke-width="1.3"/>
  <path d="M 34 372 v -6 M 31 369 l 3 -3 l 3 3" fill="none" stroke="#fff" stroke-width="1.3" stroke-linecap="round" stroke-linejoin="round"/>
  <text x="54" y="378" font-family='-apple-system, BlinkMacSystemFont, "SF Pro Text", system-ui, sans-serif' font-size="13" font-weight="500" fill="#fff" text-anchor="start">Share Contact</text>
  <text x="232" y="378" font-family='-apple-system, BlinkMacSystemFont, "SF Pro Text", system-ui, sans-serif' font-size="9" font-weight="400" fill="#6e6e73" text-anchor="start">convos://template/...</text>
  <text x="295" y="380" font-family='-apple-system, BlinkMacSystemFont, "SF Pro Text", system-ui, sans-serif' font-size="16" font-weight="400" fill="#48484a" text-anchor="middle">›</text>

  <text x="20" y="424" font-family='-apple-system, BlinkMacSystemFont, "SF Pro Text", system-ui, sans-serif' font-size="11" font-weight="400" fill="#8e8e93" text-anchor="start">About</text>
  <rect x="14" y="436" width="292" height="36" rx="14" fill="#1c1c1e"/>
  <text x="26" y="453" font-family='-apple-system, BlinkMacSystemFont, "SF Pro Text", system-ui, sans-serif' font-size="11" font-weight="400" fill="#8e8e93" text-anchor="start">Category</text>
  <text x="294" y="453" font-family='-apple-system, BlinkMacSystemFont, "SF Pro Text", system-ui, sans-serif' font-size="11" font-weight="500" fill="#fff" text-anchor="end">Sports</text>
  <line x1="26" y1="462" x2="294" y2="462" stroke="#2c2c2e" stroke-width="0.5"/>

  <rect x="14" y="476" width="292" height="36" rx="14" fill="#1c1c1e"/>
  <text x="26" y="493" font-family='-apple-system, BlinkMacSystemFont, "SF Pro Text", system-ui, sans-serif' font-size="11" font-weight="400" fill="#8e8e93" text-anchor="start">Created by</text>
  <text x="294" y="493" font-family='-apple-system, BlinkMacSystemFont, "SF Pro Text", system-ui, sans-serif' font-size="11" font-weight="500" fill="#fff" text-anchor="end">you</text>

  <rect x="14" y="516" width="292" height="36" rx="14" fill="#1c1c1e"/>
  <text x="26" y="533" font-family='-apple-system, BlinkMacSystemFont, "SF Pro Text", system-ui, sans-serif' font-size="11" font-weight="400" fill="#8e8e93" text-anchor="start">Version</text>
  <text x="294" y="533" font-family='-apple-system, BlinkMacSystemFont, "SF Pro Text", system-ui, sans-serif' font-size="11" font-weight="500" fill="#fff" text-anchor="end">v3 · published</text>

  <text x="20" y="578" font-family='-apple-system, BlinkMacSystemFont, "SF Pro Text", system-ui, sans-serif' font-size="11" font-weight="400" fill="#8e8e93" text-anchor="start">Skills</text>
  <rect x="14" y="590" width="86" height="28" rx="14" fill="#1c1c1e"/>
  <text x="57" y="608" font-family='-apple-system, BlinkMacSystemFont, "SF Pro Text", system-ui, sans-serif' font-size="11" font-weight="500" fill="#fff" text-anchor="middle">Race recap</text>
  <rect x="106" y="590" width="92" height="28" rx="14" fill="#1c1c1e"/>
  <text x="152" y="608" font-family='-apple-system, BlinkMacSystemFont, "SF Pro Text", system-ui, sans-serif' font-size="11" font-weight="500" fill="#fff" text-anchor="middle">Route planner</text>
  <rect x="204" y="590" width="78" height="28" rx="14" fill="#1c1c1e"/>
  <text x="243" y="608" font-family='-apple-system, BlinkMacSystemFont, "SF Pro Text", system-ui, sans-serif' font-size="11" font-weight="500" fill="#fff" text-anchor="middle">Power tips</text>

  <text x="20" y="652" font-family='-apple-system, BlinkMacSystemFont, "SF Pro Text", system-ui, sans-serif' font-size="11" font-weight="400" fill="#8e8e93" text-anchor="start">Convos with you (3)</text>

  <rect x="14" y="664" width="292" height="50" rx="14" fill="#1c1c1e"/>
  <circle cx="36" cy="689" r="16" fill="#3b86ff"/>
  <text x="36" y="693" font-family='-apple-system, BlinkMacSystemFont, "SF Pro Text", system-ui, sans-serif' font-size="11" font-weight="500" fill="#fff" text-anchor="middle">T</text>
  <text x="60" y="684" font-family='-apple-system, BlinkMacSystemFont, "SF Pro Text", system-ui, sans-serif' font-size="13" font-weight="500" fill="#fff" text-anchor="start">Direct with Tifoso</text>
  <text x="60" y="700" font-family='-apple-system, BlinkMacSystemFont, "SF Pro Text", system-ui, sans-serif' font-size="11" font-weight="400" fill="#8e8e93" text-anchor="start">1d · "np have a great ride"</text>
  <text x="296" y="693" font-family='-apple-system, BlinkMacSystemFont, "SF Pro Text", system-ui, sans-serif' font-size="16" font-weight="400" fill="#48484a" text-anchor="middle">›</text>

  <rect x="14" y="722" width="292" height="50" rx="14" fill="#1c1c1e"/>
  <circle cx="36" cy="747" r="16" fill="#5a3a2a"/>
  <text x="36" y="751" font-family='-apple-system, BlinkMacSystemFont, "SF Pro Text", system-ui, sans-serif' font-size="11" font-weight="500" fill="#fff" text-anchor="middle">GS</text>
  <text x="60" y="742" font-family='-apple-system, BlinkMacSystemFont, "SF Pro Text", system-ui, sans-serif' font-size="13" font-weight="500" fill="#fff" text-anchor="start">Giro superchat</text>
  <text x="60" y="758" font-family='-apple-system, BlinkMacSystemFont, "SF Pro Text", system-ui, sans-serif' font-size="11" font-weight="400" fill="#8e8e93" text-anchor="start">3d · Quarter: "Unbelievable stage omg!!!"</text>
  <text x="296" y="751" font-family='-apple-system, BlinkMacSystemFont, "SF Pro Text", system-ui, sans-serif' font-size="16" font-weight="400" fill="#48484a" text-anchor="middle">›</text>

  <rect x="14" y="780" width="292" height="50" rx="14" fill="#1c1c1e"/>
  <circle cx="36" cy="805" r="16" fill="#2c2c2e"/>
  <text x="36" y="809" font-family='-apple-system, BlinkMacSystemFont, "SF Pro Text", system-ui, sans-serif' font-size="11" font-weight="500" fill="#d1d1d6" text-anchor="middle">MB</text>
  <text x="60" y="800" font-family='-apple-system, BlinkMacSystemFont, "SF Pro Text", system-ui, sans-serif' font-size="13" font-weight="500" fill="#fff" text-anchor="start">MTB beasts</text>
  <text x="60" y="816" font-family='-apple-system, BlinkMacSystemFont, "SF Pro Text", system-ui, sans-serif' font-size="11" font-weight="400" fill="#8e8e93" text-anchor="start">3w · Emory: "TY TY"</text>
  <text x="296" y="809" font-family='-apple-system, BlinkMacSystemFont, "SF Pro Text", system-ui, sans-serif' font-size="16" font-weight="400" fill="#48484a" text-anchor="middle">›</text>

  <rect x="14" y="858" width="292" height="40" rx="14" fill="#1c1c1e"/>
  <text x="160" y="884" font-family='-apple-system, BlinkMacSystemFont, "SF Pro Text", system-ui, sans-serif' font-size="13" font-weight="500" fill="#ff453a" text-anchor="middle">Delete from contacts</text>
</svg>
